<?xml version="1.0" encoding="UTF-8" standalone="no"?>
<!DOCTYPE svg PUBLIC "-//W3C//DTD SVG 1.1//EN"
 "http://www.w3.org/Graphics/SVG/1.1/DTD/svg11.dtd">
<!-- Generated by graphviz version 2.43.0 (0)
 -->
<!-- Title: fm_pipeline Pages: 1 -->
<svg width="624pt" height="332pt"
 viewBox="0.00 0.00 624.00 332.00" xmlns="http://www.w3.org/2000/svg" xmlns:xlink="http://www.w3.org/1999/xlink">
<g id="graph0" class="graph" transform="scale(1 1) rotate(0) translate(4 328)">
<title>fm_pipeline</title>
<!-- static -->
<g id="node1" class="node">
<title>static</title>
<path fill="#fdf0e0" stroke="#c8863c" d="M161,-190C161,-190 12,-190 12,-190 6,-190 0,-184 0,-178 0,-178 0,-146 0,-146 0,-140 6,-134 12,-134 12,-134 161,-134 161,-134 167,-134 173,-140 173,-146 173,-146 173,-178 173,-178 173,-184 167,-190 161,-190"/>
<text text-anchor="middle" x="86.5" y="-177.2" font-family="Helvetica,sans-Serif" font-size="11.00">static input files</text>
<text text-anchor="middle" x="86.5" y="-165.2" font-family="Helvetica,sans-Serif" font-size="11.00">fm_programme, fm_policytc,</text>
<text text-anchor="middle" x="86.5" y="-153.2" font-family="Helvetica,sans-Serif" font-size="11.00">fm_profile, fm_xref,</text>
<text text-anchor="middle" x="86.5" y="-141.2" font-family="Helvetica,sans-Serif" font-size="11.00">fm_structure_info</text>
</g>
<!-- fs -->
<g id="node2" class="node">
<title>fs</title>
<path fill="#fdf0e0" stroke="#c8863c" d="M355,-184C355,-184 243,-184 243,-184 237,-184 231,-178 231,-172 231,-172 231,-152 231,-152 231,-146 237,-140 243,-140 243,-140 355,-140 355,-140 361,-140 367,-146 367,-152 367,-152 367,-172 367,-172 367,-178 361,-184 355,-184"/>
<text text-anchor="middle" x="299" y="-171.2" font-family="Helvetica,sans-Serif" font-size="11.00">financial structure</text>
<text text-anchor="middle" x="299" y="-159.2" font-family="Helvetica,sans-Serif" font-size="11.00">nodes_array, profiles,</text>
<text text-anchor="middle" x="299" y="-147.2" font-family="Helvetica,sans-Serif" font-size="11.00">parent/child CSR</text>
</g>
<!-- static&#45;&gt;fs -->
<g id="edge1" class="edge">
<title>static&#45;&gt;fs</title>
<path fill="none" stroke="#555555" d="M173.12,-162C188.9,-162 205.29,-162 220.8,-162"/>
<polygon fill="#555555" stroke="#555555" points="220.85,-165.5 230.85,-162 220.85,-158.5 220.85,-165.5"/>
<text text-anchor="middle" x="202" y="-164.8" font-family="Helvetica,sans-Serif" font-size="9.00">once</text>
</g>
<!-- reader -->
<g id="node3" class="node">
<title>reader</title>
<path fill="#eef3fb" stroke="#4a6fa5" d="M604,-252C604,-252 477,-252 477,-252 471,-252 465,-246 465,-240 465,-240 465,-228 465,-228 465,-222 471,-216 477,-216 477,-216 604,-216 604,-216 610,-216 616,-222 616,-228 616,-228 616,-240 616,-240 616,-246 610,-252 604,-252"/>
<text text-anchor="middle" x="540.5" y="-237.2" font-family="Helvetica,sans-Serif" font-size="11.00">event reader</text>
<text text-anchor="middle" x="540.5" y="-225.2" font-family="Helvetica,sans-Serif" font-size="11.00">stream &#45;&gt; sparse losses</text>
</g>
<!-- fs&#45;&gt;reader -->
<g id="edge2" class="edge">
<title>fs&#45;&gt;reader</title>
<path fill="none" stroke="#555555" stroke-dasharray="5,2" d="M367.03,-182.15C399.01,-191.77 437.26,-203.26 469.6,-212.99"/>
<polygon fill="#555555" stroke="#555555" points="468.85,-216.42 479.43,-215.94 470.87,-209.71 468.85,-216.42"/>
<text text-anchor="middle" x="416" y="-206.8" font-family="Helvetica,sans-Serif" font-size="9.00">compute_info</text>
</g>
<!-- compute -->
<g id="node4" class="node">
<title>compute</title>
<path fill="#e3ecfa" stroke="#2f5596" d="M593,-180C593,-180 488,-180 488,-180 482,-180 476,-174 476,-168 476,-168 476,-156 476,-156 476,-150 482,-144 488,-144 488,-144 593,-144 593,-144 599,-144 605,-150 605,-156 605,-156 605,-168 605,-168 605,-174 599,-180 593,-180"/>
<text text-anchor="middle" x="540.5" y="-165.2" font-family="Helvetica,sans-Serif" font-size="11.00">compute_event</text>
<text text-anchor="middle" x="540.5" y="-153.2" font-family="Helvetica,sans-Serif" font-size="11.00">per level, bottom up</text>
</g>
<!-- fs&#45;&gt;compute -->
<g id="edge3" class="edge">
<title>fs&#45;&gt;compute</title>
<path fill="none" stroke="#555555" stroke-dasharray="5,2" d="M367.03,-162C397.75,-162 434.25,-162 465.75,-162"/>
<polygon fill="#555555" stroke="#555555" points="465.78,-165.5 475.78,-162 465.78,-158.5 465.78,-165.5"/>
</g>
<!-- writer -->
<g id="node5" class="node">
<title>writer</title>
<path fill="#eef3fb" stroke="#4a6fa5" d="M570.5,-108C570.5,-108 510.5,-108 510.5,-108 504.5,-108 498.5,-102 498.5,-96 498.5,-96 498.5,-84 498.5,-84 498.5,-78 504.5,-72 510.5,-72 510.5,-72 570.5,-72 570.5,-72 576.5,-72 582.5,-78 582.5,-84 582.5,-84 582.5,-96 582.5,-96 582.5,-102 576.5,-108 570.5,-108"/>
<text text-anchor="middle" x="540.5" y="-87.2" font-family="Helvetica,sans-Serif" font-size="11.00">event writer</text>
</g>
<!-- fs&#45;&gt;writer -->
<g id="edge4" class="edge">
<title>fs&#45;&gt;writer</title>
<path fill="none" stroke="#555555" stroke-dasharray="5,2" d="M367.03,-141.85C405.61,-130.25 453.31,-115.91 488.76,-105.25"/>
<polygon fill="#555555" stroke="#555555" points="489.85,-108.58 498.42,-102.35 487.84,-101.88 489.85,-108.58"/>
</g>
<!-- reader&#45;&gt;compute -->
<g id="edge6" class="edge">
<title>reader&#45;&gt;compute</title>
<path fill="none" stroke="#555555" d="M540.5,-215.59C540.5,-207.94 540.5,-198.89 540.5,-190.43"/>
<polygon fill="#555555" stroke="#555555" points="544,-190.17 540.5,-180.17 537,-190.17 544,-190.17"/>
<text text-anchor="middle" x="532.5" y="-195.8" font-family="Helvetica,sans-Serif" font-size="9.00">per event</text>
</g>
<!-- compute&#45;&gt;writer -->
<g id="edge7" class="edge">
<title>compute&#45;&gt;writer</title>
<path fill="none" stroke="#555555" d="M540.5,-143.95C540.5,-135.41 540.5,-126.86 540.5,-118.31"/>
<polygon fill="#555555" stroke="#555555" points="544,-118.28 540.5,-108.28 537,-118.28 544,-118.28"/>
</g>
<!-- outstream -->
<g id="node7" class="node">
<title>outstream</title>
<polygon fill="#f2f2f2" stroke="#888888" points="588,-36 493,-36 493,0 588,0 588,-36"/>
<text text-anchor="middle" x="540.5" y="-15.2" font-family="Helvetica,sans-Serif" font-size="11.00">output stream</text>
</g>
<!-- writer&#45;&gt;outstream -->
<g id="edge8" class="edge">
<title>writer&#45;&gt;outstream</title>
<path fill="none" stroke="#555555" d="M540.5,-71.95C540.5,-63.41 540.5,-54.86 540.5,-46.31"/>
<polygon fill="#555555" stroke="#555555" points="544,-46.28 540.5,-36.28 537,-46.28 544,-46.28"/>
</g>
<!-- instream -->
<g id="node6" class="node">
<title>instream</title>
<polygon fill="#f2f2f2" stroke="#888888" points="591.5,-324 489.5,-324 489.5,-288 591.5,-288 591.5,-324"/>
<text text-anchor="middle" x="540.5" y="-309.2" font-family="Helvetica,sans-Serif" font-size="11.00">input stream(s)</text>
<text text-anchor="middle" x="540.5" y="-297.2" font-family="Helvetica,sans-Serif" font-size="11.00">GUL, IL or RI</text>
</g>
<!-- instream&#45;&gt;reader -->
<g id="edge5" class="edge">
<title>instream&#45;&gt;reader</title>
<path fill="none" stroke="#555555" d="M540.5,-287.95C540.5,-279.41 540.5,-270.86 540.5,-262.31"/>
<polygon fill="#555555" stroke="#555555" points="544,-262.28 540.5,-252.28 537,-262.28 544,-262.28"/>
</g>
</g>
</svg>
