<?xml version="1.0" encoding="UTF-8" standalone="no"?>
<!DOCTYPE svg PUBLIC "-//W3C//DTD SVG 1.1//EN"
 "http://www.w3.org/Graphics/SVG/1.1/DTD/svg11.dtd">
<!-- Generated by graphviz version 2.43.0 (0)
 -->
<!-- Title: sidx_layout Pages: 1 -->
<svg width="395pt" height="444pt"
 viewBox="0.00 0.00 395.00 444.00" xmlns="http://www.w3.org/2000/svg" xmlns:xlink="http://www.w3.org/1999/xlink">
<g id="graph0" class="graph" transform="scale(1 1) rotate(0) translate(4 440)">
<title>sidx_layout</title>
<!-- title -->
<g id="node1" class="node">
<title>title</title>
<polygon fill="transparent" stroke="transparent" points="295.5,-436 91.5,-436 91.5,-400 295.5,-400 295.5,-436"/>
<text text-anchor="middle" x="193.5" y="-415.8" font-family="Helvetica,sans-Serif" font-size="9.00">one item, N = 2 buildings, S = 3 samples</text>
</g>
<!-- lsep -->
<g id="node4" class="node">
<title>lsep</title>
<polygon fill="transparent" stroke="transparent" points="320.5,-368 66.5,-368 66.5,-316 320.5,-316 320.5,-368"/>
<text text-anchor="start" x="74.5" y="-356" font-family="Helvetica,sans-Serif" font-size="10.00">packed_buildings = &#45;2 &#160;&#160;KEEP SEPARATE</text>
<text text-anchor="start" x="74.5" y="-345" font-family="Helvetica,sans-Serif" font-size="10.00">sample: &#160;sidx = (b&#45;1)*S + s</text>
<text text-anchor="start" x="74.5" y="-334" font-family="Helvetica,sans-Serif" font-size="10.00">special: sidx = local &#45; (b&#45;1)*5</text>
<text text-anchor="start" x="74.5" y="-323" font-family="Helvetica,sans-Serif" font-size="10.00">one header and one delimiter for the whole item</text>
</g>
<!-- title&#45;&gt;lsep -->
<!-- sep -->
<g id="node2" class="node">
<title>sep</title>
<polygon fill="#fdf0e0" stroke="#c8863c" points="1.5,-191.5 1.5,-283.5 385.5,-283.5 385.5,-191.5 1.5,-191.5"/>
<text text-anchor="middle" x="193.5" y="-272.3" font-family="Helvetica,sans-Serif" font-size="9.00">header</text>
<text text-anchor="middle" x="193.5" y="-262.3" font-family="Helvetica,sans-Serif" font-size="9.00">event_id, item_id</text>
<polyline fill="none" stroke="#c8863c" points="1.5,-255.5 385.5,-255.5 "/>
<text text-anchor="middle" x="32.5" y="-244.3" font-family="Helvetica,sans-Serif" font-size="9.00">building 1</text>
<polyline fill="none" stroke="#c8863c" points="63.5,-237.5 63.5,-255.5 "/>
<text text-anchor="middle" x="91" y="-244.3" font-family="Helvetica,sans-Serif" font-size="9.00">&#45;1 mean</text>
<polyline fill="none" stroke="#c8863c" points="118.5,-237.5 118.5,-255.5 "/>
<text text-anchor="middle" x="140.5" y="-244.3" font-family="Helvetica,sans-Serif" font-size="9.00">&#45;2 std</text>
<polyline fill="none" stroke="#c8863c" points="162.5,-237.5 162.5,-255.5 "/>
<text text-anchor="middle" x="182.5" y="-244.3" font-family="Helvetica,sans-Serif" font-size="9.00">&#45;3 tiv</text>
<polyline fill="none" stroke="#c8863c" points="202.5,-237.5 202.5,-255.5 "/>
<text text-anchor="middle" x="234" y="-244.3" font-family="Helvetica,sans-Serif" font-size="9.00">&#45;4 chance</text>
<polyline fill="none" stroke="#c8863c" points="265.5,-237.5 265.5,-255.5 "/>
<text text-anchor="middle" x="290" y="-244.3" font-family="Helvetica,sans-Serif" font-size="9.00">&#45;5 max</text>
<polyline fill="none" stroke="#c8863c" points="314.5,-237.5 314.5,-255.5 "/>
<text text-anchor="middle" x="326" y="-244.3" font-family="Helvetica,sans-Serif" font-size="9.00">1</text>
<polyline fill="none" stroke="#c8863c" points="337.5,-237.5 337.5,-255.5 "/>
<text text-anchor="middle" x="349.5" y="-244.3" font-family="Helvetica,sans-Serif" font-size="9.00">2</text>
<polyline fill="none" stroke="#c8863c" points="361.5,-237.5 361.5,-255.5 "/>
<text text-anchor="middle" x="373.5" y="-244.3" font-family="Helvetica,sans-Serif" font-size="9.00">3</text>
<polyline fill="none" stroke="#c8863c" points="1.5,-237.5 385.5,-237.5 "/>
<text text-anchor="middle" x="32.5" y="-226.3" font-family="Helvetica,sans-Serif" font-size="9.00">building 2</text>
<polyline fill="none" stroke="#c8863c" points="63.5,-219.5 63.5,-237.5 "/>
<text text-anchor="middle" x="90.5" y="-226.3" font-family="Helvetica,sans-Serif" font-size="9.00">&#45;6 mean</text>
<polyline fill="none" stroke="#c8863c" points="117.5,-219.5 117.5,-237.5 "/>
<text text-anchor="middle" x="139" y="-226.3" font-family="Helvetica,sans-Serif" font-size="9.00">&#45;7 std</text>
<polyline fill="none" stroke="#c8863c" points="160.5,-219.5 160.5,-237.5 "/>
<text text-anchor="middle" x="180.5" y="-226.3" font-family="Helvetica,sans-Serif" font-size="9.00">&#45;8 tiv</text>
<polyline fill="none" stroke="#c8863c" points="200.5,-219.5 200.5,-237.5 "/>
<text text-anchor="middle" x="231.5" y="-226.3" font-family="Helvetica,sans-Serif" font-size="9.00">&#45;9 chance</text>
<polyline fill="none" stroke="#c8863c" points="262.5,-219.5 262.5,-237.5 "/>
<text text-anchor="middle" x="289.5" y="-226.3" font-family="Helvetica,sans-Serif" font-size="9.00">&#45;10 max</text>
<polyline fill="none" stroke="#c8863c" points="316.5,-219.5 316.5,-237.5 "/>
<text text-anchor="middle" x="328" y="-226.3" font-family="Helvetica,sans-Serif" font-size="9.00">4</text>
<polyline fill="none" stroke="#c8863c" points="339.5,-219.5 339.5,-237.5 "/>
<text text-anchor="middle" x="351" y="-226.3" font-family="Helvetica,sans-Serif" font-size="9.00">5</text>
<polyline fill="none" stroke="#c8863c" points="362.5,-219.5 362.5,-237.5 "/>
<text text-anchor="middle" x="374" y="-226.3" font-family="Helvetica,sans-Serif" font-size="9.00">6</text>
<polyline fill="none" stroke="#c8863c" points="1.5,-219.5 385.5,-219.5 "/>
<text text-anchor="middle" x="193.5" y="-208.3" font-family="Helvetica,sans-Serif" font-size="9.00">0</text>
<text text-anchor="middle" x="193.5" y="-198.3" font-family="Helvetica,sans-Serif" font-size="9.00">delim</text>
</g>
<!-- lsum -->
<g id="node5" class="node">
<title>lsum</title>
<polygon fill="transparent" stroke="transparent" points="322,-159 65,-159 65,-107 322,-107 322,-159"/>
<text text-anchor="start" x="73" y="-147" font-family="Helvetica,sans-Serif" font-size="10.00">packed_buildings = +2 &#160;&#160;SUMMED AT SOURCE</text>
<text text-anchor="start" x="73" y="-136" font-family="Helvetica,sans-Serif" font-size="10.00">indistinguishable from an unpacked item</text>
<text text-anchor="start" x="73" y="-125" font-family="Helvetica,sans-Serif" font-size="10.00">the reader discriminates on the sidx range alone,</text>
<text text-anchor="start" x="73" y="-114" font-family="Helvetica,sans-Serif" font-size="10.00">so only one of the two forms may be emitted</text>
</g>
<!-- sep&#45;&gt;lsum -->
<!-- summ -->
<g id="node3" class="node">
<title>summ</title>
<polygon fill="#e3ecfa" stroke="#2f5596" points="0,-0.5 0,-74.5 387,-74.5 387,-0.5 0,-0.5"/>
<text text-anchor="middle" x="193.5" y="-63.3" font-family="Helvetica,sans-Serif" font-size="9.00">header</text>
<text text-anchor="middle" x="193.5" y="-53.3" font-family="Helvetica,sans-Serif" font-size="9.00">event_id, item_id</text>
<polyline fill="none" stroke="#2f5596" points="0,-46.5 387,-46.5 "/>
<text text-anchor="middle" x="35.5" y="-35.3" font-family="Helvetica,sans-Serif" font-size="9.00">all buildings</text>
<polyline fill="none" stroke="#2f5596" points="71,-28.5 71,-46.5 "/>
<text text-anchor="middle" x="98" y="-35.3" font-family="Helvetica,sans-Serif" font-size="9.00">&#45;1 mean</text>
<polyline fill="none" stroke="#2f5596" points="125,-28.5 125,-46.5 "/>
<text text-anchor="middle" x="146.5" y="-35.3" font-family="Helvetica,sans-Serif" font-size="9.00">&#45;2 std</text>
<polyline fill="none" stroke="#2f5596" points="168,-28.5 168,-46.5 "/>
<text text-anchor="middle" x="188" y="-35.3" font-family="Helvetica,sans-Serif" font-size="9.00">&#45;3 tiv</text>
<polyline fill="none" stroke="#2f5596" points="208,-28.5 208,-46.5 "/>
<text text-anchor="middle" x="239" y="-35.3" font-family="Helvetica,sans-Serif" font-size="9.00">&#45;4 chance</text>
<polyline fill="none" stroke="#2f5596" points="270,-28.5 270,-46.5 "/>
<text text-anchor="middle" x="294" y="-35.3" font-family="Helvetica,sans-Serif" font-size="9.00">&#45;5 max</text>
<polyline fill="none" stroke="#2f5596" points="318,-28.5 318,-46.5 "/>
<text text-anchor="middle" x="329.5" y="-35.3" font-family="Helvetica,sans-Serif" font-size="9.00">1</text>
<polyline fill="none" stroke="#2f5596" points="341,-28.5 341,-46.5 "/>
<text text-anchor="middle" x="352.5" y="-35.3" font-family="Helvetica,sans-Serif" font-size="9.00">2</text>
<polyline fill="none" stroke="#2f5596" points="364,-28.5 364,-46.5 "/>
<text text-anchor="middle" x="375.5" y="-35.3" font-family="Helvetica,sans-Serif" font-size="9.00">3</text>
<polyline fill="none" stroke="#2f5596" points="0,-28.5 387,-28.5 "/>
<text text-anchor="middle" x="193.5" y="-17.3" font-family="Helvetica,sans-Serif" font-size="9.00">0</text>
<text text-anchor="middle" x="193.5" y="-7.3" font-family="Helvetica,sans-Serif" font-size="9.00">delim</text>
</g>
<!-- lsep&#45;&gt;sep -->
<!-- lsum&#45;&gt;summ -->
</g>
</svg>
